<?xml version="1.0" encoding="utf-8"?>
<!-- Generator: Adobe Illustrator 22.1.0, SVG Export Plug-In . SVG Version: 6.00 Build 0)  -->
<svg version="1.1" id="Layer_1" xmlns="http://www.w3.org/2000/svg" xmlns:xlink="http://www.w3.org/1999/xlink" x="0px" y="0px"
	 viewBox="0 0 152 50" style="enable-background:new 0 0 152 50;" xml:space="preserve">
<style type="text/css">
	.st0{fill:none;}
	.st1{fill:#151517;}
	.st2{fill:#D7263F;}
	.st3{fill:#FFFFFF;}
	.st4{fill:#E94E1B;}
	.st5{fill:#E30613;}
</style>
<rect x="29.5" y="10.2" class="st1" width="120.5" height="29.8"/>
<rect x="0.2" y="10" class="st2" width="30.5" height="30.5"/>
<g>
	<path class="st3" d="M15.6,27H9.4v8.8H2.6V13.2h6.8l0,8.6h6.1l6.1-8.6h6.9l-7,11.3l7,11.3h-6.9L15.6,27z"/>
</g>
<g>
	<path class="st3" d="M44.4,23.8h-7.6v7h-5l0-5.2V18c0-1.7,0.4-3,1.3-3.9c0.9-0.9,2.4-1.3,4.6-1.3H45c2.2,0,3.8,0.4,4.6,1.3
		c0.9,0.9,1.3,2.2,1.3,3.9v7.6l0,5.2h-5v-7H44.4z M43.3,19.7h2.6c0-0.9-0.2-1.6-0.6-2c-0.4-0.5-1.2-0.7-2.5-0.7h-2.9
		c-1.2,0-2.1,0.2-2.5,0.7c-0.4,0.5-0.6,1.2-0.6,2H43.3z"/>
	<path class="st3" d="M75.2,27.5c-0.2,0.8-0.6,1.5-1.3,2.2s-1.6,1.1-2.8,1.1h-16v-4.1h13.2c0.4,0,0.6-0.1,0.5-0.4
		c-0.1-0.3-0.2-0.5-0.3-0.5l-11.3-4.5c-1.4-0.5-2.1-1.6-2.1-3.2c0-0.7,0-1.2,0.1-1.5c0.2-0.3,0.3-0.8,0.4-1.3
		c0.1-0.6,0.7-1.1,1.7-1.6c1-0.5,2.2-0.8,3.6-0.8h14.1V17h-3.8H61.1c-0.3,0-0.5,0.2-0.5,0.6c0,0.2,0.1,0.4,0.1,0.4l12.5,5.1
		c0.8,0.4,1.4,1,1.7,1.9C75.2,25.9,75.3,26.7,75.2,27.5z"/>
	<path class="st3" d="M99.6,27.5c-0.2,0.8-0.6,1.5-1.3,2.2s-1.6,1.1-2.8,1.1h-16v-4.1h13.2c0.4,0,0.6-0.1,0.5-0.4
		c-0.1-0.3-0.2-0.5-0.3-0.5l-11.3-4.5c-1.4-0.5-2.1-1.6-2.1-3.2c0-0.7,0-1.2,0.1-1.5c0.2-0.3,0.3-0.8,0.4-1.3
		c0.1-0.6,0.7-1.1,1.7-1.6c1-0.5,2.2-0.8,3.6-0.8h14.1V17h-3.8H85.4c-0.3,0-0.5,0.2-0.5,0.6c0,0.2,0.1,0.4,0.1,0.4l12.5,5.1
		c0.8,0.4,1.4,1,1.7,1.9C99.5,25.9,99.6,26.7,99.6,27.5z"/>
	<path class="st3" d="M116.5,23.8h-7.6v7h-5l0-5.2V18c0-1.7,0.4-3,1.3-3.9c0.9-0.9,2.4-1.3,4.6-1.3h7.3c2.2,0,3.8,0.4,4.6,1.3
		c0.9,0.9,1.3,2.2,1.3,3.9v7.6l0,5.2h-5v-7H116.5z M115.4,19.7h2.6c0-0.9-0.2-1.6-0.6-2c-0.4-0.5-1.2-0.7-2.5-0.7H112
		c-1.2,0-2.1,0.2-2.5,0.7c-0.4,0.5-0.6,1.2-0.6,2H115.4z"/>
	<path class="st3" d="M146.6,30.8H141l-5.6-6.2h-3.1v6.2h-5v-18h5.9h7.4c2.2,0,3.8,0.4,4.6,1.3c0.8,0.9,1.2,2.2,1.2,3.8v0.8v0.7
		c0,1.7-0.4,3-1.2,3.8c-0.8,0.9-2,1.3-3.4,1.3H141L146.6,30.8z M138.2,20.5c1.3,0,2.2-0.2,2.6-0.7c0.4-0.5,0.6-0.8,0.6-1.1
		s-0.2-0.7-0.6-1.1c-0.4-0.5-1.2-0.7-2.6-0.7h-2.8h-3.1v3.6H138.2z"/>
</g>
<g>
	<path class="st2" d="M47.1,35.1c0.6,0.7,0.7,1.6,0.7,2.2s-0.1,1.5-0.7,2.2c-0.6,0.7-1.5,0.7-1.9,0.7s-1.3-0.1-1.9-0.7
		c-0.6-0.7-0.7-1.6-0.7-2.2s0.1-1.5,0.7-2.2c0.6-0.7,1.5-0.7,1.9-0.7S46.4,34.4,47.1,35.1z M44.3,35.9c-0.3,0.4-0.3,1-0.3,1.3
		s0,0.9,0.3,1.3c0.2,0.2,0.4,0.5,0.9,0.5s0.7-0.2,0.9-0.5c0.3-0.4,0.3-1,0.3-1.3s0-0.9-0.3-1.3c-0.2-0.2-0.4-0.5-0.9-0.5
		S44.5,35.6,44.3,35.9z"/>
	<path class="st2" d="M49,34.4h1.4v2.1h1.6v-2.1h1.4V40h-1.4v-2.4h-1.6V40H49V34.4z"/>
	<path class="st2" d="M59.5,34.4V40h-1.4v-4.5h-1.3v0.7c0,0.4,0,1.3-0.1,1.8c0,0.6-0.1,1.2-0.4,1.6c-0.3,0.3-0.7,0.5-1.2,0.5
		c-0.2,0-0.4,0-0.6-0.1v-1.2c0.1,0,0.2,0,0.3,0c0.2,0,0.3,0,0.4-0.2c0.1-0.1,0.2-0.3,0.2-0.5c0.1-0.4,0.1-0.8,0.1-1.2
		c0-0.9,0-1.3,0-1.6v-1H59.5z"/>
	<path class="st2" d="M62.4,34.4h1.7l2,5.6h-1.5l-0.4-1.2h-2L61.8,40h-1.4L62.4,34.4z M63.2,35.6L63.2,35.6l-0.7,2.2h1.3L63.2,35.6z
		"/>
	<path class="st2" d="M67,34.4h1.4v2.4l0,1.4h0l1.6-3.8h1.7V40h-1.4v-2.4l0-1.4h0L68.7,40H67V34.4z M70.8,32.8
		c0,0.3-0.1,0.6-0.3,0.9c-0.2,0.2-0.6,0.4-1.1,0.4c-0.3,0-0.8,0-1.1-0.4c-0.2-0.2-0.3-0.5-0.3-0.9l0.7-0.1c0,0.1,0.1,0.3,0.2,0.3
		c0.1,0.1,0.4,0.2,0.6,0.2s0.4,0,0.6-0.2c0.1-0.1,0.1-0.2,0.2-0.3L70.8,32.8z"/>
	<path class="st2" d="M73.2,34.4h1.4v2.1h1.6v-2.1h1.4V40h-1.4v-2.4h-1.6V40h-1.4V34.4z"/>
	<path class="st2" d="M82.7,36.5h0.4l1.4-2.1H86L84.2,37l2,3h-1.6L83,37.6h-0.4V40h-1.4v-5.6h1.4V36.5z"/>
	<path class="st2" d="M88.5,34.4h1.7l2,5.6h-1.5l-0.4-1.2h-2L88,40h-1.4L88.5,34.4z M89.4,35.6L89.4,35.6l-0.7,2.2H90L89.4,35.6z"/>
	<path class="st2" d="M97.4,39.9c-0.6,0.2-1,0.2-1.5,0.2c-2.1,0-3.1-1.3-3.1-2.9c0-1,0.4-1.8,0.9-2.2c0.5-0.4,1.3-0.7,2.1-0.7
		c0.3,0,0.8,0,1.5,0.3l-0.1,1.2c-0.3-0.2-0.8-0.4-1.3-0.4c-0.6,0-0.9,0.2-1.2,0.5c-0.3,0.3-0.5,0.8-0.5,1.3c0,0.5,0.2,1,0.5,1.3
		C95,38.8,95.5,39,96,39c0.4,0,0.9-0.1,1.3-0.3L97.4,39.9z"/>
	<path class="st2" d="M102.7,39.9c-0.6,0.2-1,0.2-1.5,0.2c-2.1,0-3.1-1.3-3.1-2.9c0-1,0.4-1.8,0.9-2.2c0.5-0.4,1.3-0.7,2.1-0.7
		c0.3,0,0.8,0,1.5,0.3l-0.1,1.2c-0.3-0.2-0.8-0.4-1.3-0.4c-0.6,0-0.9,0.2-1.2,0.5c-0.3,0.3-0.5,0.8-0.5,1.3c0,0.5,0.2,1,0.5,1.3
		c0.3,0.3,0.8,0.5,1.3,0.5c0.4,0,0.9-0.1,1.3-0.3L102.7,39.9z"/>
	<path class="st2" d="M103.8,34.4h1.4v2.1h0.6c0.4,0,1.1,0,1.6,0.4c0.2,0.2,0.5,0.7,0.5,1.4c0,0.6-0.2,1-0.6,1.3
		c-0.5,0.4-1.1,0.4-1.4,0.4h-2.1V34.4z M105.2,38.9h0.4c0.2,0,0.5,0,0.8-0.2c0.1-0.1,0.2-0.2,0.2-0.5c0-0.2-0.1-0.4-0.3-0.5
		c-0.2-0.1-0.5-0.1-0.6-0.1h-0.5V38.9z M108.6,34.4h1.4V40h-1.4V34.4z"/>
	<path class="st2" d="M115.4,34.4c0.5,0,1.4,0,1.9,0.6c0.2,0.2,0.4,0.6,0.4,1.3c0,0.4-0.1,0.8-0.4,1.2c-0.5,0.6-1.3,0.6-1.7,0.6
		h-0.5v2h-1.4v-5.6H115.4z M115.1,37h0.4c0.2,0,0.5,0,0.7-0.2c0.2-0.2,0.2-0.4,0.2-0.6c0-0.2,0-0.4-0.2-0.6
		c-0.2-0.2-0.5-0.2-0.6-0.2h-0.4V37z"/>
	<path class="st2" d="M123.2,35.1c0.6,0.7,0.7,1.6,0.7,2.2s-0.1,1.5-0.7,2.2c-0.6,0.7-1.5,0.7-1.9,0.7s-1.3-0.1-1.9-0.7
		c-0.6-0.7-0.7-1.6-0.7-2.2s0.1-1.5,0.7-2.2c0.6-0.7,1.5-0.7,1.9-0.7S122.6,34.4,123.2,35.1z M120.4,35.9c-0.3,0.4-0.3,1-0.3,1.3
		s0,0.9,0.3,1.3c0.2,0.2,0.4,0.5,0.9,0.5s0.7-0.2,0.9-0.5c0.3-0.4,0.3-1,0.3-1.3s0-0.9-0.3-1.3c-0.2-0.2-0.4-0.5-0.9-0.5
		S120.6,35.6,120.4,35.9z"/>
	<path class="st2" d="M129.5,39.9c-0.6,0.2-1,0.2-1.5,0.2c-2.1,0-3.1-1.3-3.1-2.9c0-1,0.4-1.8,0.9-2.2c0.5-0.4,1.3-0.7,2.1-0.7
		c0.3,0,0.8,0,1.5,0.3l-0.1,1.2c-0.3-0.2-0.8-0.4-1.3-0.4c-0.6,0-0.9,0.2-1.2,0.5c-0.3,0.3-0.5,0.8-0.5,1.3c0,0.5,0.2,1,0.5,1.3
		c0.3,0.3,0.8,0.5,1.3,0.5c0.4,0,0.9-0.1,1.3-0.3L129.5,39.9z"/>
	<path class="st2" d="M134.8,39.9c-0.6,0.2-1,0.2-1.5,0.2c-2.1,0-3.1-1.3-3.1-2.9c0-1,0.4-1.8,0.9-2.2c0.5-0.4,1.3-0.7,2.1-0.7
		c0.3,0,0.8,0,1.5,0.3l-0.1,1.2c-0.3-0.2-0.8-0.4-1.3-0.4c-0.6,0-0.9,0.2-1.2,0.5c-0.3,0.3-0.5,0.8-0.5,1.3c0,0.5,0.2,1,0.5,1.3
		c0.3,0.3,0.8,0.5,1.3,0.5c0.4,0,0.9-0.1,1.3-0.3L134.8,39.9z"/>
	<path class="st2" d="M135.9,34.4h1.4v2.4l0,1.4h0l1.6-3.8h1.7V40h-1.4v-2.4l0-1.4h0l-1.6,3.8h-1.7V34.4z"/>
	<path class="st2" d="M142.1,34.4h1.4v2.4l0,1.4h0l1.6-3.8h1.7V40h-1.4v-2.4l0-1.4h0l-1.6,3.8h-1.7V34.4z"/>
</g>
</svg>
